{
  "asset": {
    "version": "2.0",
    "generator": "Navneet Baid"
  },
  "scenes": [
    {
      "name": "AuxScene",
      "nodes": [
        1
      ]
    }
  ],
  "scene": 0,
  "nodes": [
    {
      "mesh": 0
    },
    {
      "matrix": [
        1,
        0,
        0,
        0,
        0,
        1,
        0,
        0,
        0,
        0,
        1,
        0,
        -149.5,
        -149.5,
        0,
        1
      ],
      "children": [
        0
      ]
    }
  ],
  "bufferViews": [
    {
      "buffer": 0,
      "byteOffset": 0,
      "byteLength": 142632,
      "target": 34962,
      "byteStride": 12
    },
    {
      "buffer": 0,
      "byteOffset": 142632,
      "byteLength": 95088,
      "target": 34962,
      "byteStride": 8
    },
    {
      "buffer": 0,
      "byteOffset": 237720,
      "byteLength": 142632,
      "target": 34962,
      "byteStride": 12
    },
    {
      "buffer": 0,
      "byteOffset": 380352,
      "byteLength": 46776,
      "target": 34963
    }
  ],
  "buffers": [
    {
      "byteLength": 427128,
      "uri": "data:application/octet-stream;base64,"
    }
  ],
  "accessors": [
    {
      "bufferView": 0,
      "componentType": 5126,
      "count": 11886,
      "max": [
        249,
        227,
        10
      ],
      "min": [
        51,
        45,
        0
      ],
      "type": "VEC3"
    },
    {
      "bufferView": 1,
      "componentType": 5126,
      "count": 11886,
      "max": [
        0.832775890827179,
        0.7591972947120667
      ],
      "min": [
        0.1705685555934906,
        0.15050166845321655
      ],
      "type": "VEC2"
    },
    {
      "bufferView": 2,
      "componentType": 5126,
      "count": 11886,
      "max": [
        0.9950371980667114,
        0.9950371980667114,
        1
      ],
      "min": [
        -0.9950371980667114,
        -0.9950371980667114,
        -1
      ],
      "type": "VEC3"
    },
    {
      "bufferView": 3,
      "componentType": 5123,
      "count": 23388,
      "max": [
        11885
      ],
      "min": [
        0
      ],
      "type": "SCALAR"
    }
  ],
  "materials": [
    {
      "pbrMetallicRoughness": {
        "baseColorFactor": [
          0.4019777798219466,
          0.4019777798219466,
          0.4019777798219466,
          1
        ],
        "metallicFactor": 0.5,
        "roughnessFactor": 0,
        "baseColorTexture": {
          "index": 0
        }
      },
      "doubleSided": true,
      "name": "Default Material"
    }
  ],
  "textures": [
    {
      "sampler": 0,
      "source": 0
    }
  ],
  "samplers": [
    {
      "magFilter": 9729,
      "minFilter": 9987,
      "wrapS": 33071,
      "wrapT": 33071
    }
  ],
  "images": [
    {
      "mimeType": "image/png",
      "uri": "data:image/png;base64,"
    }
  ],
  "meshes": [
    {
      "primitives": [
        {
          "mode": 4,
          "attributes": {
            "POSITION": 0,
            "TEXCOORD_0": 1,
            "NORMAL": 2
          },
          "indices": 3,
          "material": 0
        }
      ]
    }
  ]
}