<svg width="29" height="32" viewBox="0 0 29 32" fill="none" xmlns="http://www.w3.org/2000/svg">
<g clip-path="url(#clip0_288_295)">
<path d="M14.8887 8.8127C10.9248 8.8127 7.72755 12.0189 7.72755 15.9939C7.72755 19.9689 10.9248 23.1752 14.8887 23.1752C18.8525 23.1752 22.0498 19.9689 22.0498 15.9939C22.0498 12.0189 18.8525 8.8127 14.8887 8.8127ZM14.8887 20.6627C12.3271 20.6627 10.233 18.5689 10.233 15.9939C10.233 13.4189 12.3209 11.3252 14.8887 11.3252C17.4565 11.3252 19.5444 13.4189 19.5444 15.9939C19.5444 18.5689 17.4502 20.6627 14.8887 20.6627ZM24.0131 8.51895C24.0131 9.4502 23.2652 10.1939 22.3427 10.1939C21.4141 10.1939 20.6724 9.44395 20.6724 8.51895C20.6724 7.59395 21.4203 6.84395 22.3427 6.84395C23.2652 6.84395 24.0131 7.59395 24.0131 8.51895ZM28.756 10.2189C28.65 7.9752 28.139 5.9877 26.4998 4.3502C24.8669 2.7127 22.885 2.2002 20.6475 2.0877C18.3415 1.95645 11.4297 1.95645 9.12363 2.0877C6.8924 2.19395 4.91046 2.70645 3.27132 4.34395C1.63217 5.98145 1.12734 7.96895 1.01515 10.2127C0.884272 12.5252 0.884272 19.4564 1.01515 21.7689C1.12111 24.0127 1.63217 26.0002 3.27132 27.6377C4.91046 29.2752 6.88616 29.7877 9.12363 29.9002C11.4297 30.0314 18.3415 30.0314 20.6475 29.9002C22.885 29.7939 24.8669 29.2814 26.4998 27.6377C28.1327 26.0002 28.6438 24.0127 28.756 21.7689C28.8869 19.4564 28.8869 12.5314 28.756 10.2189ZM25.7768 24.2502C25.2907 25.4752 24.3496 26.4189 23.1218 26.9127C21.2832 27.6439 16.9205 27.4752 14.8887 27.4752C12.8569 27.4752 8.48791 27.6377 6.65556 26.9127C5.43399 26.4252 4.49289 25.4814 4.00052 24.2502C3.27132 22.4064 3.43959 18.0314 3.43959 15.9939C3.43959 13.9564 3.27755 9.5752 4.00052 7.7377C4.48665 6.5127 5.42776 5.56895 6.65556 5.0752C8.49415 4.34395 12.8569 4.5127 14.8887 4.5127C16.9205 4.5127 21.2895 4.35019 23.1218 5.0752C24.3434 5.5627 25.2845 6.50644 25.7768 7.7377C26.5061 9.58145 26.3378 13.9564 26.3378 15.9939C26.3378 18.0314 26.5061 22.4127 25.7768 24.2502Z" fill="white"/>
</g>
<defs>
<clipPath id="clip0_288_295">
<rect width="27.9216" height="32" fill="white" transform="translate(0.921631)"/>
</clipPath>
</defs>
</svg>
