<svg width="28" height="28" viewBox="0 0 28 28" fill="none" xmlns="http://www.w3.org/2000/svg">
<path d="M6.25119 28H0.461204V9.30625H6.25119V28ZM3.35308 6.75625C1.50203 6.75625 0 5.21875 0 3.3625C0 2.47071 0.35327 1.61544 0.982095 0.984853C1.61092 0.354262 2.46379 0 3.35308 0C4.24237 0 5.09524 0.354262 5.72407 0.984853C6.35289 1.61544 6.70616 2.47071 6.70616 3.3625C6.70616 5.21875 5.20413 6.75625 3.35308 6.75625ZM27.9153 28H22.1378V18.9C22.1378 16.7312 22.0942 13.95 19.1275 13.95C16.1172 13.95 15.656 16.3062 15.656 18.7437V28H9.87227V9.30625H15.4254V11.8562H15.5064C16.2793 10.3875 18.1677 8.8375 20.9848 8.8375C26.8433 8.8375 27.9216 12.7063 27.9216 17.7313V28H27.9153Z" fill="white"/>
</svg>
