<?xml version="1.0" standalone="no"?>
<!DOCTYPE svg PUBLIC "-//W3C//DTD SVG 20010904//EN"
 "http://www.w3.org/TR/2001/REC-SVG-20010904/DTD/svg10.dtd">
<svg version="1.0" xmlns="http://www.w3.org/2000/svg"
 width="893.000000pt" height="893.000000pt" viewBox="0 0 893.000000 893.000000"
 preserveAspectRatio="xMidYMid meet">
<metadata>
Created by potrace 1.14, written by Peter Selinger 2001-2017
</metadata>
<g transform="translate(0.000000,893.000000) scale(0.100000,-0.100000)"
fill="#000000" stroke="none">
<path d="M3747 8754 c-1 -1 -51 -5 -112 -8 -183 -11 -217 -14 -350 -31 -16 -2
-46 -6 -66 -10 -20 -3 -51 -8 -70 -10 -19 -2 -47 -7 -64 -10 -16 -4 -43 -8
-60 -10 -16 -2 -30 -4 -30 -5 0 -2 -13 -5 -60 -13 -60 -11 -91 -18 -170 -38
-44 -10 -89 -21 -100 -23 -11 -2 -33 -9 -50 -16 -16 -6 -30 -11 -30 -10 0 1
-20 -4 -45 -11 -25 -7 -48 -13 -52 -15 -5 -1 -9 -2 -10 -4 -2 -1 -10 -3 -18
-5 -42 -9 -205 -67 -217 -77 -7 -6 -13 -8 -13 -4 0 6 -77 -22 -137 -49 -17 -8
-33 -15 -36 -15 -2 0 -25 -9 -51 -20 -25 -12 -47 -19 -49 -18 -2 2 -12 -4 -21
-12 -10 -8 -25 -15 -34 -16 -21 -4 -85 -37 -94 -49 -4 -5 -8 -7 -8 -3 0 4 -25
-6 -55 -23 -30 -16 -55 -27 -55 -24 0 4 -12 -3 -26 -14 -15 -12 -33 -21 -40
-21 -8 0 -14 -4 -14 -10 0 -5 -6 -10 -12 -10 -7 0 -51 -23 -97 -50 -46 -28
-85 -50 -87 -50 -8 0 -169 -105 -172 -112 -2 -5 -8 -8 -12 -8 -18 0 -327 -223
-382 -275 -15 -14 -32 -25 -38 -25 -6 0 -9 -4 -5 -9 3 -5 -3 -12 -13 -15 -9
-3 -35 -23 -57 -45 -22 -21 -43 -37 -47 -34 -5 2 -8 -4 -8 -13 0 -10 -2 -15
-5 -12 -3 3 -31 -19 -63 -49 -99 -94 -240 -233 -237 -233 2 0 -15 -20 -38 -44
-70 -72 -117 -126 -117 -134 0 -13 23 -37 75 -78 27 -21 56 -46 65 -54 9 -9
33 -29 55 -45 22 -17 51 -41 65 -55 14 -14 41 -37 60 -51 19 -15 49 -40 67
-55 17 -16 50 -45 74 -63 23 -19 47 -41 55 -48 7 -7 15 -13 18 -13 3 0 16 -10
29 -22 40 -39 108 -98 113 -98 3 0 15 -10 28 -22 13 -13 43 -39 66 -58 24 -19
58 -49 76 -67 l34 -32 48 48 c26 26 84 86 128 132 167 173 375 347 564 473 47
31 91 61 98 66 6 6 12 7 12 3 0 -4 4 -3 8 3 6 9 25 22 124 79 53 31 277 144
298 150 14 4 33 14 43 23 9 8 17 12 17 8 0 -4 12 0 28 8 29 17 294 116 323
121 10 2 26 8 37 14 11 6 22 8 25 4 4 -3 12 -1 19 4 7 6 20 11 28 11 8 0 36 7
62 15 25 9 49 13 52 10 3 -4 6 -2 6 3 0 5 8 10 18 11 27 2 85 13 102 20 8 3
31 7 50 10 19 2 42 6 50 9 8 4 29 8 45 9 17 2 44 6 60 9 43 8 154 20 193 21
17 0 32 2 32 5 0 8 165 13 350 12 141 0 295 -7 295 -11 0 -1 29 -4 65 -6 36
-2 79 -6 95 -9 17 -2 50 -8 75 -12 25 -4 56 -8 70 -10 14 -1 25 -3 25 -4 0 -2
33 -9 75 -15 19 -2 50 -9 68 -14 17 -5 32 -8 32 -5 0 3 9 0 21 -6 11 -7 33
-13 47 -14 15 -2 34 -6 42 -9 14 -6 88 -25 120 -32 8 -2 34 -10 58 -19 23 -8
42 -13 42 -10 0 2 11 -3 25 -12 14 -9 25 -13 25 -9 0 4 6 3 13 -3 6 -6 14 -10
17 -11 8 0 41 -11 100 -34 30 -12 57 -22 60 -22 3 -1 23 -9 45 -20 22 -10 45
-19 51 -20 25 -6 319 -157 322 -166 2 -5 9 -9 14 -9 14 0 212 -121 216 -132 2
-4 10 -8 18 -8 8 0 14 -5 14 -12 0 -6 3 -9 6 -6 3 4 13 0 22 -9 9 -8 51 -39
92 -69 72 -53 119 -89 169 -133 13 -12 27 -21 31 -21 10 0 327 -316 380 -379
25 -30 50 -59 55 -65 6 -6 28 -33 50 -61 22 -27 44 -54 48 -60 24 -30 146
-206 167 -240 13 -22 27 -42 30 -45 4 -3 9 -12 13 -20 4 -8 18 -33 31 -55 44
-70 187 -355 179 -355 -5 0 -2 -4 5 -8 7 -5 14 -19 17 -31 2 -13 8 -28 13 -35
20 -26 112 -283 148 -416 33 -120 53 -204 49 -209 -3 -2 -1 -9 5 -16 5 -6 11
-29 14 -50 2 -22 5 -40 6 -40 1 0 4 -12 6 -27 2 -16 6 -40 8 -55 2 -16 5 -28
6 -28 2 0 8 -46 14 -110 3 -27 7 -62 11 -77 3 -15 7 -69 10 -120 2 -51 6 -102
8 -113 3 -11 0 -28 -5 -37 -5 -10 -5 -18 -1 -18 13 0 2 -398 -13 -473 -2 -12
-7 -49 -9 -81 -3 -33 -11 -66 -17 -73 -8 -9 -7 -13 1 -13 7 0 10 -4 7 -8 -3
-5 -8 -24 -11 -43 -5 -34 -20 -111 -31 -159 -3 -14 -7 -36 -10 -50 -3 -14 -12
-50 -20 -80 -8 -30 -17 -66 -20 -79 -3 -13 -9 -32 -15 -43 -5 -10 -7 -18 -5
-18 7 0 -79 -249 -114 -331 -16 -37 -26 -70 -23 -73 4 -3 1 -6 -5 -6 -7 0 -12
-5 -12 -12 0 -16 -152 -322 -162 -326 -5 -2 -8 -7 -8 -12 0 -9 -38 -73 -107
-180 -53 -80 -116 -172 -150 -215 -5 -5 -24 -30 -43 -55 -19 -25 -37 -47 -40
-50 -3 -3 -25 -30 -50 -60 -25 -30 -68 -79 -96 -107 -28 -29 -50 -53 -48 -53
2 0 -16 -18 -38 -40 -23 -22 -46 -40 -50 -40 -4 0 -8 -6 -8 -14 0 -8 -4 -16
-9 -18 -8 -3 -123 -103 -178 -155 -13 -12 -23 -19 -23 -16 0 3 -11 -6 -25 -21
-13 -14 -28 -26 -34 -26 -5 0 -11 -4 -13 -8 -1 -4 -20 -20 -40 -36 -45 -33
-45 -31 47 -151 98 -128 169 -221 185 -245 8 -12 20 -28 25 -34 6 -6 26 -32
45 -58 18 -27 37 -48 42 -48 4 0 8 -6 8 -13 0 -7 8 -22 18 -33 10 -10 65 -82
122 -159 57 -77 112 -149 122 -159 10 -11 20 -28 24 -38 6 -21 39 -21 64 0 8
7 33 27 55 43 39 29 93 74 145 119 14 12 49 42 79 68 30 26 66 58 80 72 14 14
29 24 33 22 4 -1 8 2 8 6 0 4 55 64 123 133 124 127 196 207 297 329 19 24 41
49 48 56 6 7 12 17 12 23 0 5 6 14 13 18 15 10 77 89 77 99 0 4 7 14 16 23 24
25 124 170 124 181 0 6 5 10 10 10 6 0 10 4 10 10 0 8 35 67 58 95 19 25 92
155 92 164 0 6 3 11 8 11 4 0 12 10 18 23 6 12 41 81 77 154 37 72 67 136 67
142 0 6 5 11 10 11 6 0 10 5 10 12 0 6 24 68 54 137 29 69 64 158 77 196 13
39 26 72 29 75 6 6 12 28 14 50 0 8 3 17 6 20 6 6 58 163 64 195 2 11 9 31 14
45 5 14 10 28 11 33 0 4 1 8 2 10 0 1 2 9 4 17 2 8 15 62 28 120 14 58 35 155
46 215 24 127 34 197 57 390 26 225 26 790 -1 1000 -2 17 -6 50 -10 75 -3 25
-8 63 -10 84 -3 22 -8 53 -10 70 -11 63 -25 142 -31 166 -3 14 -7 34 -8 45 -7
40 -36 171 -51 224 -8 30 -12 58 -9 63 3 4 1 8 -4 8 -5 0 -12 12 -15 28 -6 33
-12 54 -30 115 -8 26 -12 47 -9 47 4 0 2 4 -3 8 -9 6 -37 80 -39 104 -1 3 -4
10 -8 14 -5 4 -8 13 -8 21 0 14 -121 325 -129 333 -3 3 -7 11 -9 18 -6 30
-191 395 -212 420 -6 6 -7 12 -3 12 4 0 4 4 -2 8 -5 4 -21 28 -35 55 -13 26
-28 47 -33 47 -4 0 -5 5 -2 10 3 6 2 10 -4 10 -5 0 -13 10 -16 23 -4 12 -17
32 -28 45 -11 12 -16 22 -11 22 5 0 4 4 -2 8 -6 4 -35 43 -64 87 -29 44 -57
82 -62 83 -4 2 -8 9 -8 15 0 7 -14 28 -30 47 -16 19 -34 40 -40 47 -5 7 -10
15 -10 18 0 4 -6 12 -12 19 -7 7 -22 25 -33 41 -11 15 -29 37 -40 49 -11 12
-38 44 -60 71 -40 50 -97 115 -147 167 -14 15 -25 28 -23 28 7 0 -229 233
-289 285 -31 28 -69 61 -85 75 -45 41 -151 127 -221 180 -19 14 -45 35 -59 46
-31 26 -339 234 -345 234 -3 0 -44 24 -93 54 -48 29 -135 77 -193 107 -58 30
-108 58 -111 62 -3 5 -10 9 -15 9 -5 0 -25 8 -45 19 -20 10 -39 15 -43 12 -3
-4 -6 -1 -6 6 0 7 -4 9 -10 6 -5 -3 -10 -1 -10 5 0 6 -4 9 -9 6 -5 -3 -14 1
-21 9 -7 8 -20 15 -29 15 -9 0 -25 6 -36 14 -11 7 -23 14 -28 15 -4 0 -23 8
-43 16 -20 8 -43 15 -50 15 -8 0 -14 5 -14 10 0 6 -11 10 -25 10 -14 0 -25 4
-25 8 0 5 -6 9 -12 9 -15 1 -81 26 -88 33 -3 3 -9 5 -15 5 -17 1 -160 48 -165
54 -3 3 -9 6 -15 7 -14 1 -96 24 -123 35 -13 5 -32 9 -42 9 -11 0 -20 5 -20
11 0 5 -4 7 -10 4 -5 -3 -29 0 -52 7 -24 6 -50 13 -60 14 -9 0 -25 5 -35 9
-10 4 -36 10 -58 12 -22 3 -46 10 -52 15 -7 6 -13 8 -13 6 0 -3 -19 -1 -42 3
-24 5 -59 12 -78 14 -19 3 -45 8 -57 10 -52 11 -70 14 -118 20 -27 3 -63 8
-80 10 -84 12 -129 16 -320 30 -81 6 -443 13 -448 9z m333 -199 c216 -8 289
-14 323 -25 20 -7 26 -6 21 2 -4 6 -3 8 3 5 6 -4 25 -8 44 -11 162 -21 216
-29 229 -33 8 -3 29 -7 45 -9 32 -4 70 -12 70 -14 0 -1 12 -3 28 -6 15 -2 39
-6 55 -8 15 -3 27 -5 27 -6 0 -1 11 -3 25 -6 14 -2 36 -9 50 -14 14 -5 39 -11
55 -14 17 -2 30 -5 30 -6 0 -1 7 -3 15 -5 8 -2 40 -11 70 -20 30 -9 62 -18 70
-20 8 -2 34 -10 58 -19 23 -8 42 -13 42 -9 0 3 7 0 15 -7 8 -7 15 -9 15 -5 0
4 6 3 13 -3 7 -6 24 -13 37 -16 21 -4 97 -31 150 -53 8 -3 17 -7 20 -8 45 -16
247 -103 340 -148 161 -76 459 -245 507 -287 7 -5 15 -10 19 -10 6 0 233 -158
244 -170 3 -3 32 -25 65 -50 33 -25 62 -48 63 -53 2 -4 8 -5 13 -1 5 3 9 -2 9
-10 0 -9 3 -16 8 -16 9 0 63 -44 109 -87 19 -18 36 -33 38 -33 2 0 19 -15 37
-32 117 -111 178 -170 178 -172 0 -1 31 -34 68 -72 37 -38 96 -103 131 -144
35 -41 68 -79 75 -85 6 -5 31 -37 56 -70 25 -33 50 -66 55 -73 6 -7 18 -21 28
-30 9 -9 17 -21 17 -27 0 -5 14 -25 31 -42 16 -18 28 -33 25 -33 -5 0 88 -136
114 -167 6 -7 10 -15 10 -17 0 -3 16 -30 35 -60 19 -30 35 -60 35 -66 0 -5 3
-10 8 -10 4 0 18 -23 31 -50 14 -28 29 -50 33 -50 4 0 8 -7 8 -16 0 -9 8 -28
18 -42 37 -53 252 -521 252 -547 0 -2 5 -16 12 -32 6 -15 13 -37 15 -47 2 -11
8 -25 14 -33 6 -7 8 -13 4 -13 -4 0 -3 -6 2 -12 6 -7 16 -35 23 -63 7 -27 17
-56 23 -62 5 -7 7 -13 4 -13 -4 0 1 -19 9 -42 12 -33 64 -230 79 -293 3 -15
16 -78 19 -95 2 -8 6 -31 9 -50 4 -19 9 -46 12 -60 2 -14 6 -36 9 -50 3 -14 7
-43 10 -65 3 -22 8 -60 12 -85 4 -25 8 -66 8 -92 1 -27 4 -48 7 -48 3 0 6 -6
6 -12 0 -7 4 -60 8 -118 8 -121 14 -571 7 -583 -2 -5 -6 -52 -8 -105 -3 -52
-9 -102 -15 -109 -8 -9 -8 -13 -1 -13 6 0 9 -6 7 -12 -2 -7 -6 -33 -9 -58 -2
-25 -5 -45 -6 -45 -1 0 -3 -16 -5 -35 -2 -19 -6 -48 -9 -65 -2 -16 -8 -50 -11
-75 -4 -25 -9 -54 -11 -65 -2 -11 -7 -33 -10 -50 -4 -26 -11 -57 -29 -135 -2
-8 -10 -44 -18 -80 -21 -92 -53 -205 -77 -275 -11 -33 -23 -70 -26 -83 -2 -13
-15 -51 -28 -85 -39 -102 -60 -162 -61 -169 0 -4 -6 -13 -12 -19 -7 -7 -13
-23 -13 -36 0 -13 -4 -23 -10 -23 -5 0 -10 -7 -10 -16 0 -9 -27 -73 -61 -143
-33 -69 -60 -126 -59 -126 1 0 -17 -33 -39 -74 -23 -41 -41 -78 -41 -82 0 -5
-4 -9 -8 -9 -4 0 -13 -12 -19 -28 -27 -63 -152 -262 -164 -262 -5 0 -8 -3 -7
-7 2 -9 -21 -55 -32 -63 -3 -3 -26 -34 -51 -70 -24 -36 -46 -67 -49 -70 -3 -3
-17 -21 -30 -40 -27 -38 -55 -73 -82 -102 -10 -10 -15 -18 -12 -18 3 0 -1 -6
-8 -14 -7 -7 -24 -26 -38 -42 -14 -16 -52 -60 -85 -99 -83 -96 -332 -345 -345
-345 -6 0 -8 -5 -5 -10 3 -6 3 -10 -2 -10 -4 0 -23 -14 -40 -31 -18 -16 -33
-28 -33 -25 0 2 -13 -8 -28 -22 -60 -58 -101 -89 -109 -83 -15 10 -103 131
-103 140 0 5 -4 11 -8 13 -10 3 -234 298 -227 298 2 0 -9 14 -25 32 -16 17
-46 56 -66 86 -36 51 -37 55 -20 68 10 7 35 29 57 48 21 20 43 36 49 36 5 0
10 7 10 15 0 8 4 15 8 15 9 0 176 163 269 263 35 37 60 67 56 67 -3 0 7 13 23
28 16 16 40 43 54 62 14 18 30 38 35 44 6 6 43 56 83 111 40 55 76 105 80 110
4 6 46 73 92 150 47 77 89 143 93 146 5 3 8 9 8 13 -1 3 30 70 68 149 38 78
75 159 82 179 7 21 16 38 19 38 4 0 7 6 7 13 1 21 8 42 16 48 4 3 9 15 12 27
2 11 9 30 15 41 6 12 7 21 3 21 -4 0 -3 4 2 8 12 8 94 257 85 257 -2 0 1 9 7
20 6 11 23 74 38 140 32 144 34 152 40 190 2 17 6 39 8 50 9 41 16 92 23 150
3 33 8 69 10 80 7 31 17 182 18 262 1 40 3 73 6 73 3 0 4 15 3 32 -1 18 -2 33
-3 33 -1 0 -2 16 -3 37 -1 20 1 34 5 31 5 -2 4 6 0 19 -9 26 -8 60 2 76 3 6 2
13 -2 16 -5 3 -9 25 -10 49 -3 57 -10 151 -17 207 -4 25 -7 52 -7 60 0 8 -7
51 -14 95 -8 44 -17 100 -20 124 -3 24 -24 114 -45 200 -22 86 -42 164 -44
173 -2 9 -9 26 -15 37 -6 12 -9 21 -6 21 4 0 -24 92 -41 130 -3 8 -7 20 -8 25
-16 62 -152 371 -218 490 -21 39 -41 78 -44 88 -3 9 -9 17 -14 17 -5 0 -9 7
-9 15 0 9 -5 21 -10 28 -15 18 -139 209 -147 227 -4 8 -9 17 -13 20 -3 3 -21
28 -40 55 -19 28 -36 52 -39 55 -3 3 -25 30 -48 60 -23 30 -60 75 -82 100 -22
25 -41 50 -41 57 0 6 -9 15 -20 18 -11 3 -20 11 -20 16 0 5 -21 31 -47 58 -27
27 -57 59 -69 72 -47 54 -231 221 -349 317 -125 101 -373 272 -394 272 -6 0
-11 5 -11 10 0 6 -7 10 -15 10 -8 0 -15 3 -15 8 0 4 -15 13 -32 21 -18 8 -35
17 -38 20 -9 11 -345 185 -360 186 -18 2 -130 51 -130 57 0 4 -7 5 -15 2 -8
-4 -15 -1 -15 7 0 7 -3 10 -6 6 -4 -3 -19 0 -35 9 -16 8 -32 15 -36 15 -9 2
-13 3 -78 24 -111 37 -235 73 -235 68 0 -3 -7 0 -15 7 -8 7 -22 10 -30 6 -8
-3 -15 -2 -15 3 0 4 -6 8 -12 9 -7 0 -24 3 -38 6 -14 4 -34 8 -45 10 -11 3
-42 10 -70 16 -27 6 -63 13 -80 15 -16 2 -31 4 -32 5 -6 5 -121 22 -168 25
-16 1 -41 5 -55 8 -77 20 -607 28 -770 13 -41 -4 -94 -8 -117 -9 -24 -1 -43
-5 -43 -8 0 -3 -10 -5 -22 -4 -13 1 -39 -2 -58 -6 -19 -5 -57 -11 -85 -14 -27
-3 -79 -13 -115 -21 -36 -8 -81 -17 -100 -20 -19 -4 -43 -10 -52 -15 -10 -5
-18 -8 -18 -5 0 3 -15 0 -32 -5 -18 -6 -40 -12 -48 -14 -60 -14 -77 -19 -87
-28 -7 -5 -13 -7 -13 -4 0 3 -24 -2 -54 -13 -30 -10 -57 -16 -60 -13 -3 4 -6
1 -6 -6 0 -8 -8 -11 -20 -8 -11 3 -20 2 -20 -3 0 -4 -10 -11 -22 -15 -25 -8
-34 -11 -45 -15 -5 -2 -12 -4 -18 -5 -10 -2 -19 -5 -97 -38 -21 -9 -38 -13
-38 -9 0 4 -4 1 -9 -6 -4 -7 -14 -15 -22 -16 -8 -1 -40 -15 -71 -29 -31 -15
-62 -27 -67 -27 -6 0 -11 -5 -11 -10 0 -6 -3 -9 -7 -8 -5 1 -23 -6 -40 -15
-18 -10 -33 -15 -33 -12 0 2 -8 -2 -17 -10 -10 -8 -21 -15 -25 -15 -13 -1
-353 -203 -368 -220 -3 -3 -34 -25 -69 -49 -35 -24 -71 -50 -80 -57 -98 -78
-229 -184 -254 -204 -17 -14 -79 -72 -138 -130 -59 -58 -112 -104 -119 -102
-7 3 -20 12 -29 21 -40 38 -113 101 -125 108 -13 8 -112 91 -146 123 -9 8 -38
33 -65 55 -28 21 -52 42 -55 45 -3 3 -32 27 -65 55 -33 27 -71 59 -83 72 l-24
22 124 123 c105 105 188 181 331 304 15 13 27 21 27 17 0 -5 8 2 18 13 9 12
53 48 97 80 44 32 82 61 85 64 11 13 222 151 316 208 153 92 424 236 424 225
0 -3 9 2 21 13 12 10 23 18 25 16 4 -2 25 6 138 54 108 47 119 51 226 89 58
21 112 40 120 43 8 3 18 6 23 7 4 2 8 3 10 5 2 2 16 5 53 14 12 2 44 12 70 21
27 9 59 19 71 21 12 2 34 9 48 14 14 5 25 7 25 5 0 -2 11 0 25 5 14 5 36 12
48 14 172 37 225 48 240 49 9 1 17 4 17 7 0 3 16 5 35 4 19 -1 35 1 35 5 0 4
15 7 33 8 17 0 52 4 77 7 25 4 63 9 85 11 22 3 57 7 79 11 21 3 68 7 105 9 36
2 66 5 66 5 0 1 68 4 150 7 83 3 152 6 153 8 2 2 9 2 15 0 7 -2 86 -6 177 -10z"/>
<path d="M6930 8642 c-58 -1 -107 -6 -110 -10 -3 -4 -4 -6 -2 -6 1 1 29 -26
60 -60 31 -33 60 -62 65 -64 4 -2 7 -10 7 -18 0 -9 4 -13 9 -9 5 3 12 -4 16
-15 3 -11 13 -20 21 -20 8 0 14 -4 14 -8 0 -5 15 -26 34 -47 26 -29 32 -41 23
-50 -7 -7 -43 -48 -82 -90 -38 -43 -89 -97 -112 -120 -23 -24 -39 -46 -36 -49
4 -3 1 -6 -5 -6 -7 0 -12 -4 -12 -9 0 -5 60 -9 134 -10 l134 -1 38 39 c37 37
175 186 215 232 22 26 18 34 -51 108 -27 29 -50 57 -50 62 0 5 -7 9 -15 9 -8
0 -15 3 -15 8 0 4 -26 35 -58 68 -65 70 -65 70 -222 66z"/>
<path d="M7540 8633 c0 -5 16 -23 35 -42 19 -19 35 -38 35 -42 0 -5 7 -9 15
-9 8 0 15 -4 15 -9 0 -8 63 -80 136 -155 26 -27 23 -36 -32 -90 -24 -25 -44
-46 -44 -49 0 -2 -36 -41 -80 -86 -44 -46 -80 -86 -80 -90 0 -4 62 -8 137 -9
137 0 138 0 163 27 14 15 66 71 115 126 50 54 97 105 107 113 9 8 14 22 10 31
-9 25 -49 71 -56 64 -3 -4 -6 -1 -6 6 0 6 -10 22 -22 35 -13 12 -57 59 -98
104 l-75 82 -137 0 c-76 0 -138 -3 -138 -7z"/>
<path d="M8260 8633 c0 -5 21 -27 45 -51 25 -24 45 -46 45 -48 0 -3 31 -36 68
-74 38 -39 67 -70 64 -70 -3 0 5 -9 17 -19 12 -11 22 -22 21 -25 -1 -6 -98
-111 -177 -192 -28 -30 -49 -54 -45 -54 3 0 -4 -7 -16 -16 -12 -8 -20 -19 -17
-23 2 -5 64 -9 137 -9 l132 0 51 53 c90 95 200 217 209 233 6 11 5 17 -2 20
-7 2 -10 8 -6 13 3 5 -3 9 -12 9 -10 0 -15 2 -12 5 3 3 -13 25 -36 50 -22 24
-71 75 -108 115 -38 39 -68 75 -68 80 0 6 -60 10 -145 10 -80 0 -145 -3 -145
-7z"/>
<path d="M4211 7038 c-1 -24 -4 -59 -7 -78 -2 -19 -6 -60 -9 -90 -2 -30 -7
-75 -10 -100 -3 -25 -7 -70 -10 -101 -5 -54 -11 -106 -20 -198 -16 -159 -17
-150 8 -156 12 -3 42 -7 67 -10 25 -2 56 -7 70 -10 14 -3 39 -7 55 -10 49 -7
83 -15 109 -25 13 -5 26 -6 29 -3 3 3 12 1 19 -3 7 -5 22 -10 33 -12 11 -1 72
-21 135 -43 63 -22 130 -45 148 -50 17 -6 32 -14 32 -19 0 -6 3 -9 8 -8 9 2
42 -10 62 -23 8 -5 22 -12 30 -15 92 -35 385 -220 460 -290 8 -8 33 -29 55
-47 86 -71 275 -269 325 -341 8 -12 19 -26 25 -32 5 -6 39 -55 75 -110 36 -54
67 -101 70 -104 11 -10 136 -266 159 -325 12 -33 27 -69 32 -80 5 -11 11 -29
13 -40 3 -11 16 -55 30 -99 14 -43 25 -81 24 -85 0 -3 1 -9 2 -13 1 -5 3 -11
5 -15 1 -5 5 -19 9 -33 4 -14 9 -38 11 -55 2 -16 4 -30 5 -30 1 0 4 -16 6 -35
6 -53 9 -64 18 -79 7 -10 6 -12 -4 -6 -9 6 -11 4 -4 -6 4 -8 9 -32 11 -54 1
-22 5 -71 7 -110 3 -38 6 -72 7 -75 1 -3 1 -8 0 -12 0 -4 -3 -76 -5 -160 -3
-84 -8 -164 -11 -178 -3 -14 -7 -41 -10 -60 -4 -35 -10 -72 -20 -120 -13 -63
-17 -86 -18 -97 0 -7 -4 -13 -9 -13 -5 0 -7 -4 -4 -8 3 -5 -4 -38 -15 -73 -11
-35 -22 -71 -24 -79 -2 -8 -9 -31 -16 -50 -15 -43 -22 -63 -24 -70 -1 -3 -7
-18 -15 -35 -7 -16 -21 -48 -30 -70 -40 -90 -64 -140 -73 -146 -5 -3 -8 -9 -8
-13 2 -9 -23 -55 -63 -116 -20 -30 -36 -58 -36 -62 0 -8 -21 -36 -48 -64 -7
-8 -11 -14 -8 -14 6 0 -16 -30 -46 -61 -9 -9 -14 -20 -10 -23 3 -3 0 -6 -6 -6
-6 0 -14 -9 -17 -20 -4 -11 -11 -18 -16 -15 -5 4 -9 1 -9 -6 0 -14 1 -12 -116
-134 -48 -49 -87 -93 -86 -97 1 -5 -2 -8 -8 -8 -5 0 -26 -16 -46 -35 -19 -19
-38 -35 -41 -35 -3 0 -15 -10 -27 -22 -12 -13 -31 -30 -43 -38 -11 -8 -56 -40
-100 -71 -104 -74 -246 -157 -366 -213 -53 -25 -100 -46 -103 -46 -3 0 -20 -6
-37 -14 -18 -8 -54 -22 -82 -31 -27 -10 -57 -20 -65 -23 -8 -3 -22 -7 -30 -8
-8 -1 -28 -7 -45 -14 -16 -7 -41 -14 -55 -16 -33 -5 -65 -12 -65 -14 0 -3 -83
-20 -125 -25 -19 -3 -45 -7 -57 -10 -28 -7 -123 -16 -183 -19 -25 -1 -50 -5
-57 -9 -6 -4 -15 -3 -18 3 -5 8 -11 8 -20 0 -9 -8 -15 -8 -20 0 -3 6 -11 7
-18 3 -15 -9 -57 -10 -57 -1 0 4 -7 5 -17 1 -14 -6 -79 -8 -85 -3 -2 1 -28 3
-58 5 -30 1 -80 6 -110 10 -30 4 -67 7 -82 8 -16 0 -28 4 -28 7 0 4 -10 6 -22
5 -13 -1 -27 0 -33 4 -10 6 -18 7 -70 15 -28 5 -98 22 -190 48 -22 6 -44 15
-50 19 -5 4 -30 12 -55 19 -41 11 -111 39 -152 61 -10 5 -25 9 -33 9 -8 0 -15
4 -15 10 0 5 -3 9 -7 8 -8 -2 -92 39 -170 83 -114 64 -353 233 -353 250 0 5
-5 9 -10 9 -6 0 -21 10 -34 23 -13 12 -41 38 -62 58 -96 89 -226 237 -299 343
-27 39 -53 73 -57 74 -4 2 -8 9 -8 16 0 7 -9 22 -20 34 -12 12 -18 22 -16 22
3 0 -6 16 -19 36 -14 20 -52 92 -85 160 -33 68 -63 124 -66 124 -4 0 -520
-211 -606 -248 -25 -11 -49 -18 -52 -15 -3 4 -6 1 -6 -6 0 -7 -4 -10 -9 -7 -5
3 -14 0 -20 -8 -8 -10 -7 -20 3 -42 30 -61 59 -129 58 -136 -1 -5 3 -8 8 -8 6
0 10 -9 10 -20 0 -11 4 -20 9 -20 5 0 13 -10 17 -22 9 -30 115 -211 128 -220
7 -5 7 -8 1 -8 -6 0 -6 -3 0 -8 6 -4 24 -28 40 -54 17 -27 33 -48 38 -48 4 0
7 -7 7 -15 0 -8 5 -15 10 -15 6 0 10 -5 10 -11 0 -9 87 -123 137 -179 7 -8 30
-35 51 -59 86 -102 311 -316 427 -404 5 -4 37 -28 70 -52 33 -25 65 -49 72
-55 7 -6 24 -15 38 -22 14 -6 25 -15 25 -20 0 -4 7 -8 15 -8 8 0 15 -4 15 -10
0 -5 4 -10 9 -10 6 0 29 -13 53 -28 24 -16 63 -40 88 -53 25 -13 47 -26 50
-29 7 -7 138 -71 225 -110 97 -44 297 -120 316 -120 8 0 20 -5 27 -12 7 -7 12
-9 12 -6 0 4 16 0 35 -8 19 -8 36 -14 37 -13 2 1 23 -4 48 -11 25 -7 52 -14
60 -15 8 -2 38 -9 65 -15 119 -28 276 -52 425 -67 155 -14 477 -8 653 13 20 2
52 6 70 8 65 7 215 38 337 68 155 39 461 144 468 161 2 4 10 7 19 7 19 0 277
131 356 181 34 22 69 42 77 46 8 4 38 24 66 44 29 21 54 35 58 32 3 -4 6 -1 6
4 0 6 20 24 45 40 25 15 45 31 45 35 0 4 11 13 24 20 28 15 106 80 148 122 15
16 28 26 28 23 0 -10 173 165 257 261 45 51 110 130 144 175 34 45 65 84 70
85 5 2 9 8 9 13 0 9 69 118 81 129 3 3 8 12 12 20 4 8 24 44 46 80 21 36 51
90 66 120 16 30 37 74 49 98 11 23 25 42 29 42 5 0 6 4 3 8 -2 4 2 21 9 37 33
70 114 287 115 307 1 4 8 27 16 50 21 57 74 275 88 358 3 14 5 27 6 30 1 3 2
17 2 33 1 15 3 27 7 27 3 0 7 17 8 38 1 20 5 71 10 112 10 97 10 522 -1 620
-4 41 -10 91 -12 110 -1 19 -5 46 -8 60 -3 14 -10 54 -16 90 -6 36 -15 79 -20
95 -5 17 -11 41 -13 55 -2 14 -6 32 -9 40 -7 17 -28 96 -33 119 -13 59 -109
319 -149 400 -14 30 -26 61 -26 68 0 7 -4 13 -9 13 -11 0 -32 56 -24 64 4 3 1
6 -4 6 -6 0 -22 21 -35 48 -33 63 -66 121 -89 154 -11 14 -19 29 -19 32 0 12
-177 260 -211 296 -8 8 -26 31 -41 50 -40 54 -278 303 -278 292 0 -3 -10 6
-23 19 -25 27 -74 70 -131 114 -21 17 -50 40 -65 52 -14 13 -32 23 -39 23 -7
0 -10 5 -7 10 3 6 1 10 -5 10 -11 0 -24 9 -61 43 -10 9 -25 17 -33 17 -8 0
-16 4 -18 8 -4 10 -109 80 -153 102 -17 8 -32 17 -35 20 -15 15 -283 149 -330
165 -3 1 -16 6 -30 12 -14 6 -47 20 -75 30 -27 11 -59 23 -70 28 -11 4 -24 9
-30 11 -5 2 -61 19 -124 39 -63 19 -127 38 -142 40 -15 3 -39 9 -52 14 -14 6
-42 12 -64 16 -21 3 -50 8 -63 11 -14 3 -36 7 -50 9 -14 2 -36 7 -50 10 -14 2
-45 7 -70 10 -25 3 -63 8 -86 11 l-40 5 -3 -43z m244 -132 c170 -34 328 -75
425 -110 25 -9 53 -19 62 -21 9 -2 27 -9 40 -16 13 -7 24 -12 26 -11 1 1 18
-5 38 -13 20 -8 38 -15 40 -15 2 0 39 -17 81 -37 43 -20 80 -37 83 -38 3 0 16
-7 30 -15 47 -26 135 -73 157 -84 13 -6 23 -14 23 -18 0 -5 5 -8 11 -8 19 0
265 -169 316 -217 13 -12 23 -20 23 -17 0 10 145 -122 250 -226 83 -83 200
-213 214 -239 5 -9 14 -21 20 -27 29 -31 53 -62 59 -77 3 -9 11 -17 17 -17 5
0 10 -4 10 -9 0 -5 25 -45 55 -89 30 -44 55 -85 55 -91 0 -6 5 -11 11 -11 5 0
7 -4 4 -10 -3 -5 -2 -10 4 -10 12 0 186 -345 206 -410 1 -3 7 -18 14 -35 7
-16 14 -37 16 -47 2 -9 10 -29 19 -46 8 -16 12 -32 9 -36 -4 -3 -2 -6 3 -6 5
0 11 -12 12 -26 1 -14 5 -31 9 -37 4 -7 9 -18 10 -24 4 -17 7 -30 22 -83 7
-25 15 -53 17 -62 2 -10 7 -28 10 -40 15 -61 53 -292 59 -358 4 -41 8 -91 10
-110 5 -42 5 -358 1 -415 -8 -105 -19 -197 -33 -275 -8 -47 -17 -98 -20 -115
-2 -16 -11 -57 -19 -90 -8 -33 -17 -68 -19 -79 -5 -22 -45 -155 -53 -176 -3
-8 -6 -17 -6 -20 -1 -3 -7 -21 -15 -40 -48 -127 -64 -168 -77 -191 -7 -14 -11
-29 -7 -33 3 -3 1 -6 -5 -6 -7 0 -12 -5 -12 -11 0 -15 -80 -178 -91 -185 -5
-3 -7 -9 -4 -14 3 -5 -1 -14 -8 -22 -13 -12 -39 -54 -82 -131 -18 -31 -148
-219 -173 -249 -37 -44 -48 -57 -82 -99 -19 -23 -54 -62 -77 -86 -24 -24 -43
-45 -43 -48 0 -3 -65 -66 -155 -149 -22 -21 -66 -58 -97 -83 -32 -25 -58 -50
-58 -55 0 -5 -4 -6 -10 -3 -5 3 -10 1 -10 -4 0 -6 -8 -11 -17 -11 -9 0 -13 -3
-10 -7 4 -3 -17 -21 -45 -39 -28 -19 -55 -39 -60 -46 -4 -7 -8 -9 -8 -5 0 5
-18 -6 -40 -23 -22 -17 -40 -28 -40 -23 0 4 -4 4 -8 -2 -10 -15 -68 -54 -84
-57 -7 -2 -15 -6 -18 -9 -11 -13 -130 -78 -130 -71 0 4 -4 2 -8 -3 -10 -15
-299 -147 -347 -159 -5 -2 -19 -6 -30 -10 -11 -5 -37 -14 -57 -22 -21 -8 -38
-11 -38 -8 0 4 -6 2 -12 -3 -7 -6 -38 -16 -68 -23 -30 -7 -62 -16 -70 -20 -8
-5 -28 -10 -45 -13 -16 -3 -73 -15 -125 -26 -91 -19 -156 -30 -210 -36 -152
-16 -213 -20 -390 -20 -212 0 -326 7 -460 30 -22 4 -50 8 -63 10 -170 21 -499
118 -692 205 -91 40 -240 113 -245 119 -5 7 -63 34 -68 32 -1 -1 -9 4 -18 11
-42 36 -68 53 -101 68 -12 5 -31 18 -43 30 -11 11 -20 17 -20 14 0 -6 -95 61
-118 83 -7 7 -17 13 -21 13 -4 0 -24 16 -44 35 -20 19 -37 32 -37 28 0 -3 -14
8 -30 26 -17 17 -35 31 -40 31 -6 0 -10 4 -10 9 0 5 -20 24 -45 42 -24 19 -45
40 -45 47 0 6 -4 12 -10 12 -20 0 -270 274 -303 333 -9 18 -17 28 -17 23 0 -5
-22 24 -49 65 -28 41 -54 79 -58 84 -5 6 -18 26 -29 45 -10 19 -22 37 -25 40
-8 7 -107 183 -110 195 -1 6 -12 26 -24 45 -19 29 -20 37 -9 48 8 7 16 12 19
12 3 0 28 11 55 25 28 14 50 23 50 20 0 -3 22 6 49 20 27 15 59 27 70 28 12 1
21 5 21 9 0 4 9 8 20 8 11 0 20 5 20 10 0 6 6 10 14 10 7 0 36 10 65 21 41 18
54 19 66 9 8 -7 12 -16 9 -21 -3 -5 2 -12 10 -15 9 -3 16 -11 16 -18 0 -19 37
-86 44 -79 3 4 6 0 6 -9 0 -8 18 -43 40 -77 22 -34 40 -66 40 -71 0 -4 4 -10
8 -12 5 -1 23 -24 40 -50 18 -25 39 -54 48 -62 8 -9 13 -16 9 -16 -3 0 4 -11
17 -24 13 -14 43 -48 68 -77 54 -63 220 -233 220 -226 0 2 19 -14 43 -36 23
-22 87 -73 142 -113 144 -105 149 -109 158 -109 4 0 11 -4 15 -10 6 -9 100
-62 159 -89 13 -6 23 -14 23 -18 0 -5 5 -8 12 -8 6 0 34 -11 62 -24 28 -13 74
-33 101 -45 28 -12 58 -26 68 -32 10 -5 22 -7 27 -4 4 3 10 1 12 -4 1 -6 15
-12 30 -15 14 -2 35 -9 45 -14 10 -6 23 -11 28 -12 6 -2 15 -4 20 -6 27 -9
125 -35 144 -39 13 -2 31 -7 41 -10 25 -8 78 -18 154 -30 61 -10 75 -13 86
-20 6 -3 10 -1 10 5 0 7 6 8 18 2 17 -9 73 -15 150 -16 23 0 42 -3 42 -6 0 -3
25 -5 55 -5 30 0 55 4 55 10 0 5 5 4 12 -3 6 -6 18 -8 27 -3 19 9 32 8 49 -2
6 -5 12 -5 12 0 0 4 21 8 48 9 70 1 219 16 282 29 14 3 36 8 50 10 14 3 41 7
60 10 19 2 37 5 40 6 3 1 8 1 13 0 4 0 7 4 7 11 0 6 3 9 6 6 3 -3 29 1 57 8
29 8 59 17 67 19 8 2 34 10 58 19 23 8 42 13 42 9 0 -3 6 -1 13 4 6 5 35 18
62 28 28 10 70 27 95 38 51 24 47 22 78 32 12 4 22 12 22 18 0 6 3 7 6 4 10
-10 274 135 282 155 2 4 8 8 14 8 9 0 144 94 158 110 3 3 20 17 39 30 103 72
326 302 430 442 25 35 51 69 58 76 6 6 15 21 18 32 3 11 10 20 14 20 5 0 14
13 21 30 7 17 16 30 21 30 5 0 9 5 9 11 0 6 15 37 34 68 42 70 94 171 98 191
2 8 8 18 13 22 6 4 10 11 10 15 1 4 6 18 13 31 7 12 10 22 6 22 -3 0 -2 6 3
13 10 13 44 101 45 114 0 5 3 13 7 18 8 9 20 50 20 68 0 4 8 21 16 37 9 17 13
30 11 30 -3 0 0 15 5 33 6 17 12 43 15 57 3 14 9 39 14 55 5 17 11 46 14 65 3
19 13 80 22 135 26 149 25 601 -1 695 -2 8 -7 35 -10 60 -10 74 -12 81 -40
190 -14 58 -28 114 -31 125 -2 11 -8 29 -13 40 -4 11 -23 61 -41 110 -52 142
-168 375 -239 479 -17 24 -31 49 -31 54 0 6 -3 12 -7 14 -5 2 -28 30 -52 63
-25 33 -48 62 -53 63 -4 2 -8 8 -8 12 0 5 -10 20 -22 33 -13 13 -38 42 -56 63
-99 116 -230 239 -357 334 -33 25 -61 48 -63 53 -2 4 -10 7 -18 7 -8 0 -14 5
-14 10 0 6 -6 10 -13 10 -8 0 -22 9 -32 20 -10 11 -24 20 -32 20 -7 0 -13 5
-13 10 0 6 -5 10 -11 10 -6 0 -30 13 -54 29 -38 26 -306 165 -313 162 -1 -1
-19 6 -39 14 -20 9 -47 18 -60 21 -13 4 -23 10 -23 16 0 5 -4 7 -8 4 -4 -3
-38 6 -75 19 -37 13 -67 21 -67 18 0 -3 -7 0 -15 7 -8 7 -15 9 -15 5 0 -4 -6
-3 -12 2 -7 5 -20 9 -28 8 -8 0 -17 2 -20 6 -3 4 -23 9 -46 11 -23 3 -46 8
-52 12 -7 4 -31 9 -54 11 -24 2 -44 4 -45 4 -2 1 -5 0 -6 -1 -10 -7 -35 25
-32 40 1 9 6 53 10 97 4 44 8 91 10 105 2 14 6 59 10 100 4 41 9 86 10 100 2
14 3 31 4 38 1 16 29 15 116 -2z"/>
<path d="M2966 6034 c-3 -7 11 -33 30 -58 49 -64 124 -193 117 -200 -4 -3 -1
-6 5 -6 6 0 13 -13 17 -30 4 -16 11 -30 16 -30 6 0 7 -5 4 -10 -4 -6 -2 -17 4
-23 20 -25 46 -263 31 -287 -5 -8 -126 -11 -381 -10 -206 1 -389 2 -407 4 -18
1 -35 -1 -38 -6 -3 -5 -10 -5 -17 -1 -16 10 -58 10 -63 1 -3 -5 -10 -5 -16 -2
-13 8 -474 7 -488 -1 -5 -3 -10 -3 -10 2 0 7 -93 9 -110 2 -3 -1 -9 0 -15 1
-5 1 -230 1 -500 1 -538 -1 -513 2 -509 -62 2 -28 34 -79 34 -54 0 6 64 10
160 10 88 0 160 -3 160 -7 0 -4 7 -5 15 -2 26 10 105 9 109 -1 3 -7 5 -7 5 0
1 6 28 10 64 9 l62 -1 3 -66 c2 -52 0 -67 -11 -67 -7 0 -17 3 -21 7 -29 29
-178 42 -248 21 -56 -17 -109 -44 -101 -52 4 -3 0 -6 -8 -6 -13 0 -66 -51
-114 -110 -11 -14 -27 -41 -34 -60 -8 -19 -18 -39 -21 -45 -4 -5 -6 -19 -4
-29 1 -11 -1 -28 -7 -37 -5 -11 -5 -20 0 -24 5 -3 13 -20 16 -38 17 -76 129
-211 210 -252 22 -11 41 -23 43 -27 2 -5 7 -8 12 -8 5 0 21 -5 37 -12 37 -15
53 -19 80 -22 13 -1 25 -5 29 -8 11 -12 119 4 168 24 84 35 139 78 166 127 17
34 3 39 -93 34 -64 -3 -84 -8 -97 -23 -9 -11 -20 -17 -24 -13 -3 3 -6 1 -6 -5
0 -7 -7 -12 -15 -12 -8 0 -15 -4 -15 -9 0 -6 -8 -10 -17 -10 -10 0 -34 -3 -53
-8 -62 -16 -157 -6 -203 21 -68 39 -91 79 -91 157 0 139 110 287 250 335 134
46 281 -2 300 -98 15 -79 17 -82 68 -83 26 -1 49 2 52 6 8 14 -14 55 -59 105
l-46 51 0 111 c1 68 5 115 12 119 16 10 126 9 120 -1 -4 -5 -1 -6 6 -1 15 9
215 10 230 0 6 -3 11 -2 11 4 0 5 9 9 20 8 11 -1 20 -5 20 -10 0 -4 5 -5 12
-1 16 10 158 11 158 1 0 -4 8 -4 18 1 23 11 137 8 137 -4 0 -5 4 -15 8 -21 5
-7 4 -13 -1 -13 -5 0 -7 -22 -6 -50 2 -27 2 -50 -1 -50 -2 0 -34 7 -72 16 -75
18 -169 20 -188 4 -6 -5 -14 -8 -17 -5 -7 7 -74 -22 -99 -43 -54 -45 -88 -80
-110 -117 -13 -22 -24 -42 -25 -45 0 -3 -5 -14 -10 -25 -16 -37 -7 -138 17
-191 28 -59 37 -70 111 -144 50 -50 198 -143 198 -124 0 3 7 1 15 -6 10 -8 45
-13 93 -13 81 0 107 4 141 23 12 6 21 8 21 5 0 -9 87 53 120 85 17 16 30 33
30 38 0 5 7 15 15 22 8 7 13 16 10 20 -3 5 -1 11 5 15 6 4 8 10 5 15 -3 5 -1
11 4 14 5 4 9 47 9 97 0 86 -13 142 -39 173 -5 6 -25 28 -44 50 l-35 39 0 111
c0 61 4 116 8 121 10 14 32 17 32 4 0 -7 5 -8 13 -3 14 11 198 11 215 0 7 -4
12 -3 12 2 0 10 92 8 109 -2 6 -4 11 -3 11 2 0 5 19 7 43 5 23 -2 47 -4 52 -4
6 1 29 2 53 4 23 1 42 -2 42 -8 0 -6 3 -6 8 1 4 5 25 9 47 7 22 -2 47 -3 55
-3 62 3 182 1 193 -3 10 -4 13 -38 12 -141 0 -86 3 -136 10 -136 5 0 4 -4 -3
-9 -7 -4 -12 -12 -11 -17 5 -26 -8 -17 -85 61 -106 106 -160 135 -255 132 -71
-2 -171 -41 -190 -75 -6 -9 -11 -13 -11 -8 0 6 -14 -10 -32 -35 -18 -24 -36
-46 -40 -49 -21 -16 -52 -110 -52 -162 -1 -45 6 -69 33 -122 34 -64 138 -186
160 -186 6 0 11 -4 11 -9 0 -5 30 -23 67 -41 75 -37 146 -43 203 -18 19 8 38
15 43 16 4 1 17 11 29 22 12 11 26 20 30 20 5 0 7 4 3 9 -3 5 3 12 12 16 10 3
30 22 46 42 15 20 28 32 28 27 1 -5 2 -25 3 -44 1 -19 6 -41 10 -49 7 -10 5
-12 -5 -7 -8 4 -3 -2 11 -13 14 -11 32 -21 40 -21 9 0 26 -7 38 -16 12 -8 22
-12 22 -7 0 4 7 0 14 -10 11 -14 16 -15 22 -5 4 7 8 196 9 420 0 223 3 409 6
412 10 11 54 13 72 4 9 -5 17 -5 17 -1 0 4 27 8 60 8 33 0 60 -3 60 -7 0 -4 7
-5 16 -1 24 9 147 10 167 1 9 -5 17 -5 17 -1 0 6 140 9 217 4 7 -1 10 -8 6
-18 -4 -9 -2 -14 3 -10 8 4 11 -34 4 -53 -1 -3 -3 -16 -3 -29 -2 -26 -1 -25
-102 -35 -249 -23 -368 -107 -321 -226 4 -9 24 -27 46 -40 44 -27 48 -35 25
-44 -33 -12 -114 -70 -109 -78 3 -4 1 -8 -5 -8 -10 0 -18 -20 -26 -61 -7 -34
30 -101 67 -123 18 -10 51 -29 73 -41 36 -20 103 -43 185 -62 35 -8 229 -7
265 2 17 3 39 8 50 10 11 2 21 4 23 5 1 2 5 3 10 5 21 6 52 19 92 39 l45 22 3
108 3 107 -78 -78 c-75 -76 -163 -131 -218 -137 -12 -1 -26 -5 -32 -9 -18 -12
-160 -20 -180 -12 -10 5 -25 7 -34 6 -9 -1 -36 13 -60 32 -36 27 -44 39 -45
68 -1 19 3 41 10 49 35 47 132 75 253 75 78 0 82 1 88 23 3 13 3 32 0 42 -5
16 -18 18 -113 18 -125 -1 -177 15 -188 56 -9 39 19 74 84 104 52 25 68 27
177 27 75 0 134 -5 158 -14 44 -15 48 -13 49 25 1 55 -2 64 -31 78 -27 15 -28
17 -26 83 1 37 3 75 4 83 1 12 21 15 113 15 l113 0 3 52 3 53 -486 2 c-267 2
-495 0 -506 -4 -10 -4 -19 -4 -20 0 0 4 -2 27 -4 52 -5 88 -16 177 -25 208 -5
18 -9 35 -9 37 0 16 -36 125 -54 164 -30 66 -77 141 -109 176 -26 28 -32 30
-107 31 -57 1 -81 -2 -85 -12z m-814 -976 c157 -33 178 -237 38 -386 -22 -24
-40 -41 -40 -37 0 3 -12 -5 -26 -19 -41 -38 -129 -78 -178 -81 -25 -2 -50 -6
-56 -10 -5 -3 -10 -1 -10 5 0 6 -4 9 -9 5 -5 -3 -12 -1 -16 5 -4 6 -11 8 -16
5 -5 -4 -9 -1 -9 4 0 6 -6 11 -13 11 -15 0 -69 58 -76 80 -19 65 7 184 54 246
59 77 142 138 224 165 55 19 75 20 133 7z m880 -36 c14 -6 29 -16 33 -22 3 -5
9 -8 13 -6 9 5 66 -55 71 -74 7 -31 7 -80 -1 -80 -4 0 -8 -6 -8 -13 0 -58
-144 -218 -237 -263 -84 -41 -190 -22 -209 38 -3 10 -9 16 -13 13 -11 -6 -35
81 -34 120 1 55 7 95 14 95 4 0 12 14 19 30 17 41 96 111 167 147 62 32 129
37 185 15z"/>
<path d="M3416 4232 c-3 -3 -24 -6 -47 -8 -51 -4 -67 -16 -63 -51 1 -16 2 -35
3 -44 1 -13 9 -16 37 -12 41 6 124 -14 124 -30 0 -6 3 -8 6 -4 6 6 59 -46 137
-135 22 -27 46 -48 52 -48 7 0 9 -18 5 -55 -3 -30 -4 -55 -1 -55 8 0 5 -136
-3 -149 -4 -6 -4 -11 1 -11 9 0 7 -376 -2 -390 -4 -6 -3 -10 2 -10 12 0 10
-194 -2 -202 -10 -8 2 -9 122 -12 40 0 74 1 74 4 1 3 3 200 3 438 2 360 4 435
16 442 8 5 18 6 22 4 38 -23 -64 87 -208 228 -77 74 -116 91 -236 102 -20 2
-39 1 -42 -2z"/>
<path d="M2965 3923 c-82 -13 -134 -28 -157 -44 -33 -24 -38 -24 -38 0 0 23
-11 27 -70 25 -98 -3 -91 2 -88 -56 l3 -52 50 1 c68 2 81 -3 61 -23 -9 -8 -13
-21 -9 -27 4 -6 8 -22 9 -35 2 -13 15 -35 31 -48 26 -22 33 -25 49 -23 4 0 10
-3 13 -8 20 -29 165 -38 182 -12 5 8 9 10 9 4 0 -5 8 3 18 20 20 32 13 50 -21
52 -48 4 -55 62 -11 99 15 14 30 21 33 17 3 -5 15 -8 26 -7 11 0 32 -8 46 -18
41 -27 52 -67 40 -140 -2 -14 -48 -57 -54 -51 -4 3 -7 2 -7 -3 0 -9 -51 -26
-112 -38 -7 -2 -20 -5 -28 -8 -8 -3 -44 -14 -80 -24 -36 -10 -75 -24 -87 -32
-12 -7 -27 -11 -33 -7 -5 3 -10 2 -10 -3 0 -5 -16 -20 -35 -33 -52 -35 -85
-108 -84 -183 0 -34 6 -76 13 -94 25 -71 130 -146 246 -177 56 -15 181 -17
236 -5 42 10 64 4 64 -16 0 -8 4 -14 8 -14 4 0 16 -14 26 -30 28 -49 67 -81
81 -67 17 18 105 148 105 157 0 4 -8 7 -17 7 -41 0 -59 4 -77 18 -17 13 -17
15 14 45 42 41 60 88 60 156 0 57 -33 139 -52 128 -4 -3 -8 -1 -8 5 0 9 -21
19 -45 22 -5 0 -18 5 -27 10 -10 6 -19 5 -23 -1 -3 -6 -17 -8 -31 -6 -13 3
-24 0 -24 -5 0 -5 -3 -8 -7 -8 -40 6 -100 -56 -108 -114 -8 -51 0 -100 21
-132 23 -34 12 -43 -51 -40 -57 3 -125 37 -125 63 0 6 -4 12 -8 12 -5 0 -9 6
-10 13 -1 6 -4 28 -7 47 -3 19 0 49 5 66 11 31 70 94 90 94 5 0 10 5 10 12 0
6 3 9 6 5 4 -3 19 0 35 8 15 8 38 17 51 19 13 3 24 5 26 7 1 1 5 2 10 4 4 1
20 7 35 13 16 7 32 12 37 12 10 0 122 60 130 69 3 3 15 14 26 24 21 17 22 17
20 0 -1 -15 9 -18 71 -21 77 -3 90 5 87 53 -1 11 -2 30 -3 43 -1 13 -5 21 -10
18 -5 -4 -21 -2 -35 4 -17 6 -26 6 -26 0 0 -10 -40 -7 -58 4 -4 2 -7 22 -6 43
2 60 -38 129 -96 164 -22 14 -38 20 -100 36 -20 6 -180 10 -205 6z"/>
<path d="M3380 3896 c-15 -15 -13 -96 3 -97 19 -1 79 -1 105 0 20 1 22 6 22
51 0 33 -4 50 -12 51 -70 5 -110 3 -118 -5z"/>
<path d="M3960 3902 c-5 -2 -10 -25 -10 -52 0 -37 4 -49 18 -52 9 -2 176 -3
370 -2 193 1 353 -2 353 -5 1 -3 2 -83 3 -177 1 -161 0 -170 -16 -160 -10 6
-18 16 -18 23 0 6 -11 25 -25 41 -14 17 -25 33 -25 36 0 11 -84 86 -96 86 -5
0 -15 5 -22 12 -6 6 -22 13 -34 15 -43 7 -173 10 -183 5 -5 -3 -25 -7 -44 -9
-19 -2 -41 -9 -48 -15 -7 -6 -13 -7 -13 -3 0 5 -9 0 -21 -11 -12 -10 -22 -17
-23 -14 -5 13 -69 -54 -83 -87 -32 -73 -28 -83 37 -103 25 -7 50 -17 55 -21 6
-4 29 -13 53 -20 23 -6 42 -16 42 -21 0 -5 4 -7 9 -3 5 3 12 1 16 -5 15 -24
23 4 20 66 -3 64 -1 68 30 99 22 20 42 31 57 29 13 -1 29 -3 36 -3 22 -2 69
-55 83 -96 16 -51 17 -52 27 -100 5 -22 10 -44 12 -50 7 -29 -6 -45 -62 -82
-208 -133 -315 -158 -420 -99 -53 29 -59 31 -53 14 3 -7 7 -31 10 -53 3 -22 7
-49 10 -60 2 -11 4 -25 4 -30 1 -14 72 -44 116 -48 82 -8 222 39 331 112 25
17 47 31 50 31 3 0 11 6 18 13 7 6 28 23 46 37 18 14 52 40 74 59 l41 34 3
-106 c2 -89 5 -105 20 -109 14 -3 115 -3 198 1 20 1 20 5 20 382 -1 209 1 384
4 388 3 5 25 8 50 8 25 1 51 1 58 2 8 1 12 18 12 51 0 45 -2 50 -22 51 -62 3
-1059 4 -1068 1z"/>
<path d="M1282 779 c-9 -4 -46 -39 -82 -79 -36 -40 -90 -99 -121 -131 -32 -33
-55 -59 -52 -59 2 0 0 -8 -5 -17 -8 -13 2 -29 49 -76 32 -32 59 -60 59 -62 0
-1 34 -38 75 -81 l74 -79 136 0 c74 -1 135 3 135 8 0 9 -50 64 -142 159 -32
33 -58 62 -58 65 0 3 -11 14 -25 25 -32 25 -32 49 3 79 15 14 46 48 70 77 24
28 68 76 98 107 30 31 54 60 54 64 0 9 -245 8 -268 0z"/>
<path d="M1976 766 c-12 -12 -50 -55 -86 -95 -36 -40 -84 -93 -107 -117 -24
-25 -43 -52 -43 -62 0 -9 45 -63 99 -119 54 -57 96 -103 94 -103 -3 0 12 -16
33 -35 l39 -35 133 0 c77 0 132 4 132 10 0 8 -40 53 -193 213 -31 33 -56 66
-55 74 2 8 23 36 48 62 25 26 74 80 110 120 36 41 71 79 78 87 6 7 12 15 12
19 0 3 -62 5 -137 4 -126 -2 -138 -4 -157 -23z"/>
<path d="M515 734 c-22 -23 -69 -75 -105 -115 -36 -40 -77 -86 -93 -102 -18
-19 -24 -33 -19 -43 7 -12 49 -59 207 -228 25 -28 54 -51 63 -53 33 -5 58 -5
165 -4 92 1 106 3 95 15 -7 7 -47 51 -88 96 -41 45 -97 104 -123 132 -51 53
-51 51 -7 98 8 9 49 54 90 99 41 46 82 91 90 100 50 53 54 51 -96 49 l-139 -2
-40 -42z"/>
</g>
</svg>
